<svg xmlns="http://www.w3.org/2000/svg" xmlns:xlink="http://www.w3.org/1999/xlink" width="40" zoomAndPan="magnify" viewBox="0 0 30 30.000001" height="40" preserveAspectRatio="xMidYMid meet" version="1.2"><defs><clipPath id="61779b6961"><path d="M 9.371094 5.839844 L 20.984375 5.839844 L 20.984375 17.453125 L 9.371094 17.453125 Z M 9.371094 5.839844 "/></clipPath></defs><g id="64b2f5f62a"><g clip-rule="nonzero" clip-path="url(#61779b6961)"><path style=" stroke:none;fill-rule:nonzero;fill:#000000;fill-opacity:1;" d="M 20.125 12.164062 L 18.929688 12.164062 L 18.929688 11.882812 C 18.929688 11.558594 18.65625 11.296875 18.324219 11.296875 L 16.921875 11.296875 C 16.589844 11.296875 16.316406 11.558594 16.316406 11.882812 L 16.316406 12.164062 L 15.976562 12.164062 L 15.976562 8.996094 C 15.976562 8.296875 15.390625 7.726562 14.664062 7.726562 L 14.292969 7.726562 L 14.292969 6.648438 C 14.476562 6.621094 14.617188 6.46875 14.617188 6.285156 L 14.617188 6.214844 C 14.617188 6.011719 14.445312 5.84375 14.234375 5.84375 L 11.117188 5.84375 C 10.90625 5.84375 10.734375 6.011719 10.734375 6.214844 L 10.734375 6.285156 C 10.734375 6.46875 10.875 6.621094 11.054688 6.648438 L 11.054688 7.726562 L 10.6875 7.726562 C 9.960938 7.726562 9.371094 8.296875 9.371094 8.996094 L 9.371094 15.417969 C 9.371094 15.945312 9.710938 16.402344 10.1875 16.59375 L 10.1875 17.042969 C 10.1875 17.265625 10.371094 17.445312 10.601562 17.445312 C 10.832031 17.445312 11.019531 17.265625 11.019531 17.042969 L 11.019531 16.6875 L 14.261719 16.6875 C 14.308594 17.105469 14.675781 17.433594 15.121094 17.433594 L 20.125 17.433594 C 20.601562 17.433594 20.988281 17.058594 20.988281 16.597656 L 20.988281 13 C 20.988281 12.539062 20.601562 12.164062 20.125 12.164062 Z M 19.507812 12.347656 L 19.507812 17.25 L 15.738281 17.25 L 15.738281 12.347656 Z M 18.308594 12.164062 L 16.9375 12.164062 L 16.9375 12.050781 C 16.9375 11.9375 17.03125 11.847656 17.144531 11.847656 L 18.101562 11.847656 C 18.214844 11.847656 18.308594 11.9375 18.308594 12.050781 Z M 16.507812 11.882812 C 16.507812 11.660156 16.695312 11.480469 16.921875 11.480469 L 18.324219 11.480469 C 18.550781 11.480469 18.738281 11.660156 18.738281 11.882812 L 18.738281 12.164062 L 18.496094 12.164062 L 18.496094 12.050781 C 18.496094 11.835938 18.320312 11.664062 18.101562 11.664062 L 17.144531 11.664062 C 16.925781 11.664062 16.75 11.835938 16.75 12.050781 L 16.75 12.164062 L 16.507812 12.164062 Z M 13.851562 7.726562 L 13.851562 6.65625 L 14.105469 6.65625 L 14.105469 7.726562 Z M 13.644531 7.726562 L 13.476562 7.511719 C 13.398438 7.40625 13.277344 7.347656 13.148438 7.347656 L 12.199219 7.347656 C 12.074219 7.347656 11.953125 7.40625 11.875 7.511719 L 11.707031 7.726562 L 11.6875 7.726562 L 11.6875 6.65625 L 13.664062 6.65625 L 13.664062 7.726562 Z M 13.40625 7.726562 L 11.945312 7.726562 L 12.027344 7.621094 C 12.070312 7.5625 12.132812 7.53125 12.199219 7.53125 L 13.148438 7.53125 C 13.21875 7.53125 13.28125 7.5625 13.324219 7.621094 Z M 10.921875 6.285156 L 10.921875 6.214844 C 10.921875 6.113281 11.007812 6.03125 11.117188 6.03125 L 14.234375 6.03125 C 14.339844 6.03125 14.425781 6.113281 14.425781 6.214844 L 14.425781 6.285156 C 14.425781 6.386719 14.339844 6.472656 14.234375 6.472656 L 11.117188 6.472656 C 11.007812 6.472656 10.921875 6.386719 10.921875 6.285156 Z M 11.246094 6.65625 L 11.496094 6.65625 L 11.496094 7.726562 L 11.246094 7.726562 Z M 9.5625 15.417969 L 9.5625 8.996094 C 9.5625 8.398438 10.066406 7.910156 10.6875 7.910156 L 14.664062 7.910156 C 15.285156 7.910156 15.789062 8.398438 15.789062 8.996094 L 15.789062 12.164062 L 15.203125 12.164062 L 15.203125 8.871094 C 15.203125 8.671875 15.039062 8.511719 14.835938 8.511719 C 14.632812 8.511719 14.464844 8.671875 14.464844 8.871094 L 14.464844 12.457031 C 14.335938 12.601562 14.257812 12.792969 14.257812 13 L 14.257812 16.503906 L 10.6875 16.503906 C 10.066406 16.503906 9.5625 16.015625 9.5625 15.417969 Z M 14.65625 12.296875 L 14.65625 8.871094 C 14.65625 8.773438 14.738281 8.695312 14.835938 8.695312 C 14.933594 8.695312 15.015625 8.773438 15.015625 8.871094 L 15.015625 12.171875 C 14.882812 12.1875 14.761719 12.230469 14.65625 12.296875 Z M 10.828125 17.042969 C 10.828125 17.164062 10.726562 17.261719 10.601562 17.261719 C 10.476562 17.261719 10.375 17.164062 10.375 17.042969 L 10.375 16.652344 C 10.476562 16.675781 10.578125 16.6875 10.6875 16.6875 L 10.828125 16.6875 Z M 14.449219 16.617188 C 14.449219 16.609375 14.453125 16.605469 14.453125 16.597656 C 14.453125 16.585938 14.449219 16.578125 14.449219 16.570312 L 14.449219 13 C 14.449219 12.867188 14.488281 12.742188 14.5625 12.640625 C 14.613281 12.640625 14.65625 12.597656 14.65625 12.546875 L 14.65625 12.527344 C 14.769531 12.425781 14.917969 12.359375 15.085938 12.351562 C 15.09375 12.351562 15.101562 12.355469 15.109375 12.355469 C 15.121094 12.355469 15.132812 12.351562 15.140625 12.347656 L 15.550781 12.347656 L 15.550781 17.25 L 15.121094 17.25 C 14.757812 17.25 14.460938 16.96875 14.449219 16.617188 Z M 20.796875 16.597656 C 20.796875 16.957031 20.496094 17.25 20.125 17.25 L 19.699219 17.25 L 19.699219 12.347656 L 20.125 12.347656 C 20.496094 12.347656 20.796875 12.640625 20.796875 13 Z M 20.796875 16.597656 "/></g><path style=" stroke:none;fill-rule:nonzero;fill:#000000;fill-opacity:1;" d="M 12.644531 15.789062 L 12.707031 15.789062 C 12.890625 15.789062 13.042969 15.640625 13.042969 15.460938 L 13.042969 8.839844 C 13.042969 8.660156 12.890625 8.511719 12.707031 8.511719 L 12.644531 8.511719 C 12.457031 8.511719 12.304688 8.660156 12.304688 8.839844 L 12.304688 15.460938 C 12.308594 15.640625 12.457031 15.789062 12.644531 15.789062 Z M 12.496094 8.839844 C 12.496094 8.761719 12.5625 8.695312 12.644531 8.695312 L 12.707031 8.695312 C 12.789062 8.695312 12.855469 8.761719 12.855469 8.839844 L 12.855469 15.460938 C 12.855469 15.539062 12.789062 15.605469 12.707031 15.605469 L 12.644531 15.605469 C 12.5625 15.605469 12.496094 15.539062 12.496094 15.460938 Z M 12.496094 8.839844 "/><path style=" stroke:none;fill-rule:nonzero;fill:#000000;fill-opacity:1;" d="M 11.535156 15.789062 L 11.597656 15.789062 C 11.785156 15.789062 11.933594 15.640625 11.933594 15.460938 L 11.933594 8.839844 C 11.933594 8.660156 11.785156 8.511719 11.597656 8.511719 L 11.535156 8.511719 C 11.347656 8.511719 11.199219 8.660156 11.199219 8.839844 L 11.199219 15.460938 C 11.199219 15.640625 11.347656 15.789062 11.535156 15.789062 Z M 11.386719 8.839844 C 11.386719 8.761719 11.453125 8.695312 11.535156 8.695312 L 11.597656 8.695312 C 11.679688 8.695312 11.746094 8.761719 11.746094 8.839844 L 11.746094 15.460938 C 11.746094 15.539062 11.679688 15.605469 11.597656 15.605469 L 11.535156 15.605469 C 11.453125 15.605469 11.386719 15.539062 11.386719 15.460938 Z M 11.386719 8.839844 "/><path style=" stroke:none;fill-rule:nonzero;fill:#000000;fill-opacity:1;" d="M 10.828125 15.460938 L 10.828125 8.839844 C 10.828125 8.660156 10.675781 8.511719 10.488281 8.511719 L 10.425781 8.511719 C 10.242188 8.511719 10.089844 8.660156 10.089844 8.839844 L 10.089844 15.460938 C 10.089844 15.640625 10.242188 15.789062 10.425781 15.789062 L 10.488281 15.789062 C 10.675781 15.789062 10.828125 15.640625 10.828125 15.460938 Z M 10.636719 15.460938 C 10.636719 15.539062 10.570312 15.605469 10.488281 15.605469 L 10.425781 15.605469 C 10.34375 15.605469 10.277344 15.539062 10.277344 15.460938 L 10.277344 8.839844 C 10.277344 8.761719 10.34375 8.695312 10.425781 8.695312 L 10.488281 8.695312 C 10.570312 8.695312 10.636719 8.761719 10.636719 8.839844 Z M 10.636719 15.460938 "/><path style=" stroke:none;fill-rule:nonzero;fill:#000000;fill-opacity:1;" d="M 13.695312 15.789062 L 13.757812 15.789062 C 13.945312 15.789062 14.09375 15.640625 14.09375 15.460938 L 14.09375 8.839844 C 14.09375 8.660156 13.945312 8.511719 13.757812 8.511719 L 13.695312 8.511719 C 13.507812 8.511719 13.359375 8.660156 13.359375 8.839844 L 13.359375 15.460938 C 13.359375 15.640625 13.507812 15.789062 13.695312 15.789062 Z M 13.546875 8.839844 C 13.546875 8.761719 13.613281 8.695312 13.695312 8.695312 L 13.757812 8.695312 C 13.839844 8.695312 13.90625 8.761719 13.90625 8.839844 L 13.90625 15.460938 C 13.90625 15.539062 13.839844 15.605469 13.757812 15.605469 L 13.695312 15.605469 C 13.613281 15.605469 13.546875 15.539062 13.546875 15.460938 Z M 13.546875 8.839844 "/><g style="fill:#000000;fill-opacity:1;"><g transform="translate(6.365661, 19.774348)"><path style="stroke:none" d="M 0.71875 0.546875 C 0.582031 0.453125 0.476562 0.34375 0.40625 0.21875 C 0.34375 0.101562 0.316406 -0.015625 0.328125 -0.140625 C 0.335938 -0.273438 0.390625 -0.410156 0.484375 -0.546875 L 0.96875 -1.234375 L 1.5 -0.859375 L 1.046875 -0.21875 C 1.003906 -0.164062 0.984375 -0.117188 0.984375 -0.078125 C 0.984375 -0.0351562 1.003906 0 1.046875 0.03125 C 1.085938 0.0625 1.128906 0.0703125 1.171875 0.0625 C 1.210938 0.0507812 1.25 0.0195312 1.28125 -0.03125 L 2.765625 -2.125 L 3.3125 -1.734375 L 1.875 0.3125 C 1.769531 0.445312 1.648438 0.546875 1.515625 0.609375 C 1.390625 0.671875 1.253906 0.695312 1.109375 0.6875 C 0.972656 0.675781 0.84375 0.628906 0.71875 0.546875 Z M 0.71875 0.546875 "/></g></g><g style="fill:#000000;fill-opacity:1;"><g transform="translate(8.026853, 20.928228)"><path style="stroke:none" d="M 0.578125 0.328125 C 0.378906 0.222656 0.273438 0.0859375 0.265625 -0.078125 C 0.253906 -0.242188 0.304688 -0.445312 0.421875 -0.6875 C 0.523438 -0.882812 0.628906 -1.023438 0.734375 -1.109375 C 0.835938 -1.191406 0.945312 -1.234375 1.0625 -1.234375 C 1.1875 -1.242188 1.359375 -1.226562 1.578125 -1.1875 L 1.765625 -1.171875 L 1.78125 -1.171875 L 1.90625 -1.4375 C 1.9375 -1.5 1.945312 -1.550781 1.9375 -1.59375 C 1.925781 -1.644531 1.910156 -1.679688 1.890625 -1.703125 C 1.847656 -1.710938 1.804688 -1.707031 1.765625 -1.6875 C 1.734375 -1.675781 1.703125 -1.644531 1.671875 -1.59375 L 1.59375 -1.4375 L 1 -1.71875 L 1.046875 -1.8125 C 1.171875 -2.0625 1.316406 -2.207031 1.484375 -2.25 C 1.660156 -2.300781 1.878906 -2.265625 2.140625 -2.140625 C 2.347656 -2.023438 2.488281 -1.878906 2.5625 -1.703125 C 2.644531 -1.535156 2.632812 -1.347656 2.53125 -1.140625 L 1.5625 0.78125 L 0.96875 0.484375 L 1.125 0.171875 C 1.019531 0.265625 0.921875 0.320312 0.828125 0.34375 C 0.742188 0.375 0.660156 0.367188 0.578125 0.328125 Z M 1.046875 -0.046875 C 1.085938 -0.015625 1.128906 -0.015625 1.171875 -0.046875 C 1.210938 -0.078125 1.25 -0.117188 1.28125 -0.171875 L 1.625 -0.875 C 1.519531 -0.882812 1.429688 -0.867188 1.359375 -0.828125 C 1.285156 -0.796875 1.226562 -0.734375 1.1875 -0.640625 L 1.03125 -0.328125 C 0.945312 -0.179688 0.953125 -0.0859375 1.046875 -0.046875 Z M 1.046875 -0.046875 "/></g></g><g style="fill:#000000;fill-opacity:1;"><g transform="translate(9.906129, 21.852197)"><path style="stroke:none" d="M 0.140625 0.046875 L 1.171875 -3.140625 L 1.796875 -2.9375 L 1.328125 -1.515625 L 1.953125 -2.359375 L 2.609375 -2.140625 L 1.84375 -1.09375 L 1.859375 0.59375 L 1.171875 0.375 L 1.171875 -1.03125 L 0.765625 0.25 Z M 0.140625 0.046875 "/></g></g><g style="fill:#000000;fill-opacity:1;"><g transform="translate(11.929887, 22.482213)"><path style="stroke:none" d="M 0.921875 0.1875 C 0.628906 0.132812 0.425781 0.0234375 0.3125 -0.140625 C 0.195312 -0.316406 0.171875 -0.566406 0.234375 -0.890625 L 0.28125 -1.21875 L 0.921875 -1.109375 L 0.859375 -0.6875 C 0.828125 -0.53125 0.863281 -0.445312 0.96875 -0.4375 C 1.03125 -0.425781 1.070312 -0.429688 1.09375 -0.453125 C 1.125 -0.484375 1.144531 -0.539062 1.15625 -0.625 C 1.175781 -0.726562 1.175781 -0.816406 1.15625 -0.890625 C 1.144531 -0.972656 1.125 -1.039062 1.09375 -1.09375 C 1.070312 -1.144531 1.015625 -1.234375 0.921875 -1.359375 L 0.703125 -1.6875 C 0.515625 -1.925781 0.441406 -2.175781 0.484375 -2.4375 C 0.523438 -2.71875 0.625 -2.921875 0.78125 -3.046875 C 0.9375 -3.171875 1.132812 -3.210938 1.375 -3.171875 C 1.675781 -3.128906 1.878906 -3.019531 1.984375 -2.84375 C 2.085938 -2.675781 2.113281 -2.421875 2.0625 -2.078125 L 1.390625 -2.1875 L 1.421875 -2.421875 C 1.429688 -2.460938 1.421875 -2.492188 1.390625 -2.515625 C 1.367188 -2.546875 1.335938 -2.566406 1.296875 -2.578125 C 1.242188 -2.585938 1.203125 -2.578125 1.171875 -2.546875 C 1.140625 -2.523438 1.125 -2.492188 1.125 -2.453125 C 1.101562 -2.335938 1.144531 -2.210938 1.25 -2.078125 L 1.578125 -1.640625 C 1.648438 -1.546875 1.710938 -1.453125 1.765625 -1.359375 C 1.816406 -1.273438 1.847656 -1.175781 1.859375 -1.0625 C 1.878906 -0.945312 1.878906 -0.816406 1.859375 -0.671875 C 1.804688 -0.359375 1.707031 -0.128906 1.5625 0.015625 C 1.414062 0.171875 1.203125 0.226562 0.921875 0.1875 Z M 0.921875 0.1875 "/></g></g><g style="fill:#000000;fill-opacity:1;"><g transform="translate(13.907827, 22.792115)"><path style="stroke:none" d="M 0.65625 0.046875 C 0.4375 0.0351562 0.285156 -0.0390625 0.203125 -0.1875 C 0.117188 -0.332031 0.0820312 -0.539062 0.09375 -0.8125 C 0.09375 -1.03125 0.117188 -1.195312 0.171875 -1.3125 C 0.234375 -1.4375 0.316406 -1.523438 0.421875 -1.578125 C 0.523438 -1.640625 0.6875 -1.695312 0.90625 -1.75 L 1.09375 -1.8125 L 1.09375 -2.109375 C 1.09375 -2.179688 1.078125 -2.238281 1.046875 -2.28125 C 1.015625 -2.320312 0.984375 -2.34375 0.953125 -2.34375 C 0.910156 -2.34375 0.875 -2.320312 0.84375 -2.28125 C 0.820312 -2.25 0.8125 -2.207031 0.8125 -2.15625 L 0.8125 -1.984375 L 0.15625 -2 L 0.15625 -2.09375 C 0.15625 -2.375 0.21875 -2.570312 0.34375 -2.6875 C 0.476562 -2.8125 0.691406 -2.867188 0.984375 -2.859375 C 1.222656 -2.859375 1.414062 -2.789062 1.5625 -2.65625 C 1.707031 -2.53125 1.78125 -2.351562 1.78125 -2.125 L 1.75 0.03125 L 1.078125 0.015625 L 1.078125 -0.328125 C 1.035156 -0.203125 0.976562 -0.109375 0.90625 -0.046875 C 0.832031 0.015625 0.75 0.046875 0.65625 0.046875 Z M 0.921875 -0.484375 C 0.972656 -0.484375 1.007812 -0.503906 1.03125 -0.546875 C 1.0625 -0.585938 1.078125 -0.640625 1.078125 -0.703125 L 1.078125 -1.484375 C 0.972656 -1.453125 0.894531 -1.40625 0.84375 -1.34375 C 0.800781 -1.28125 0.78125 -1.195312 0.78125 -1.09375 L 0.78125 -0.734375 C 0.769531 -0.566406 0.816406 -0.484375 0.921875 -0.484375 Z M 0.921875 -0.484375 "/></g></g><g style="fill:#000000;fill-opacity:1;"><g transform="translate(16.00444, 22.805617)"><path style="stroke:none" d="M 1.21875 -0.140625 C 1.03125 -0.117188 0.878906 -0.207031 0.765625 -0.40625 L 0.8125 -0.109375 L 0.140625 -0.015625 L -0.328125 -3.328125 L 0.34375 -3.421875 L 0.4375 -2.78125 C 0.53125 -2.914062 0.648438 -2.992188 0.796875 -3.015625 C 1.015625 -3.046875 1.179688 -3 1.296875 -2.875 C 1.410156 -2.75 1.484375 -2.570312 1.515625 -2.34375 L 1.703125 -0.984375 C 1.734375 -0.753906 1.707031 -0.5625 1.625 -0.40625 C 1.550781 -0.257812 1.414062 -0.171875 1.21875 -0.140625 Z M 0.90625 -0.640625 C 0.957031 -0.648438 0.988281 -0.664062 1 -0.6875 C 1.019531 -0.71875 1.03125 -0.753906 1.03125 -0.796875 C 1.03125 -0.847656 1.019531 -0.914062 1 -1 L 0.84375 -2.1875 C 0.820312 -2.289062 0.800781 -2.363281 0.78125 -2.40625 C 0.757812 -2.457031 0.71875 -2.476562 0.65625 -2.46875 C 0.59375 -2.457031 0.550781 -2.425781 0.53125 -2.375 C 0.507812 -2.320312 0.507812 -2.242188 0.53125 -2.140625 L 0.6875 -0.953125 C 0.707031 -0.835938 0.726562 -0.753906 0.75 -0.703125 C 0.78125 -0.648438 0.832031 -0.628906 0.90625 -0.640625 Z M 0.90625 -0.640625 "/></g></g><g style="fill:#000000;fill-opacity:1;"><g transform="translate(18.14586, 22.480678)"><path style="stroke:none" d="M 0.640625 -0.15625 C 0.429688 -0.09375 0.265625 -0.117188 0.140625 -0.234375 C 0.015625 -0.347656 -0.0820312 -0.535156 -0.15625 -0.796875 C -0.21875 -1.003906 -0.238281 -1.175781 -0.21875 -1.3125 C -0.207031 -1.445312 -0.160156 -1.550781 -0.078125 -1.625 C 0.00390625 -1.707031 0.140625 -1.8125 0.328125 -1.9375 L 0.484375 -2.0625 L 0.484375 -2.078125 L 0.390625 -2.34375 C 0.367188 -2.414062 0.335938 -2.460938 0.296875 -2.484375 C 0.253906 -2.515625 0.21875 -2.523438 0.1875 -2.515625 C 0.15625 -2.503906 0.128906 -2.476562 0.109375 -2.4375 C 0.0976562 -2.40625 0.0976562 -2.363281 0.109375 -2.3125 L 0.171875 -2.140625 L -0.453125 -1.9375 L -0.484375 -2.03125 C -0.566406 -2.300781 -0.5625 -2.515625 -0.46875 -2.671875 C -0.382812 -2.828125 -0.207031 -2.945312 0.0625 -3.03125 C 0.289062 -3.09375 0.492188 -3.085938 0.671875 -3.015625 C 0.847656 -2.941406 0.972656 -2.796875 1.046875 -2.578125 L 1.671875 -0.515625 L 1.03125 -0.3125 L 0.9375 -0.640625 C 0.925781 -0.515625 0.894531 -0.410156 0.84375 -0.328125 C 0.800781 -0.242188 0.734375 -0.1875 0.640625 -0.15625 Z M 0.734375 -0.75 C 0.785156 -0.769531 0.8125 -0.800781 0.8125 -0.84375 C 0.820312 -0.882812 0.820312 -0.9375 0.8125 -1 L 0.578125 -1.75 C 0.484375 -1.6875 0.421875 -1.613281 0.390625 -1.53125 C 0.367188 -1.457031 0.375 -1.375 0.40625 -1.28125 L 0.515625 -0.9375 C 0.566406 -0.78125 0.640625 -0.71875 0.734375 -0.75 Z M 0.734375 -0.75 "/></g></g><g style="fill:#000000;fill-opacity:1;"><g transform="translate(20.146466, 21.855046)"><path style="stroke:none" d="M -1.109375 -2.625 L -0.5 -2.921875 L -0.34375 -2.578125 C -0.363281 -2.703125 -0.359375 -2.8125 -0.328125 -2.90625 C -0.304688 -3.007812 -0.242188 -3.082031 -0.140625 -3.125 C 0.0351562 -3.21875 0.191406 -3.226562 0.328125 -3.15625 C 0.460938 -3.082031 0.578125 -2.945312 0.671875 -2.75 L 1.625 -0.78125 L 1.03125 -0.5 L 0.109375 -2.40625 C 0.078125 -2.46875 0.0390625 -2.507812 0 -2.53125 C -0.0390625 -2.5625 -0.0820312 -2.5625 -0.125 -2.53125 C -0.195312 -2.5 -0.226562 -2.453125 -0.21875 -2.390625 C -0.207031 -2.328125 -0.179688 -2.25 -0.140625 -2.15625 L 0.734375 -0.359375 L 0.125 -0.0625 Z M -1.109375 -2.625 "/></g></g><g style="fill:#000000;fill-opacity:1;"><g transform="translate(22.086183, 20.898106)"><path style="stroke:none" d="M 0.984375 -0.171875 C 0.804688 -0.0546875 0.660156 0.015625 0.546875 0.046875 C 0.429688 0.0859375 0.304688 0.109375 0.171875 0.109375 L 0.140625 -0.34375 C 0.335938 -0.363281 0.503906 -0.421875 0.640625 -0.515625 C 0.722656 -0.566406 0.765625 -0.632812 0.765625 -0.71875 C 0.765625 -0.8125 0.734375 -0.90625 0.671875 -1 L 0.578125 -1.125 C 0.648438 -0.9375 0.59375 -0.78125 0.40625 -0.65625 C 0.238281 -0.539062 0.0820312 -0.507812 -0.0625 -0.5625 C -0.21875 -0.625 -0.359375 -0.742188 -0.484375 -0.921875 L -1.09375 -1.796875 C -1.226562 -2.003906 -1.296875 -2.1875 -1.296875 -2.34375 C -1.304688 -2.5 -1.226562 -2.640625 -1.0625 -2.765625 C -0.957031 -2.835938 -0.859375 -2.863281 -0.765625 -2.84375 C -0.679688 -2.832031 -0.597656 -2.785156 -0.515625 -2.703125 L -0.703125 -2.96875 L -0.125 -3.375 L 1.21875 -1.4375 C 1.40625 -1.175781 1.476562 -0.945312 1.4375 -0.75 C 1.394531 -0.550781 1.242188 -0.359375 0.984375 -0.171875 Z M 0.328125 -1.21875 C 0.410156 -1.28125 0.398438 -1.382812 0.296875 -1.53125 L -0.28125 -2.375 C -0.320312 -2.425781 -0.367188 -2.460938 -0.421875 -2.484375 C -0.472656 -2.515625 -0.515625 -2.515625 -0.546875 -2.484375 C -0.597656 -2.453125 -0.617188 -2.410156 -0.609375 -2.359375 C -0.597656 -2.316406 -0.570312 -2.265625 -0.53125 -2.203125 L 0.046875 -1.359375 C 0.0976562 -1.296875 0.144531 -1.25 0.1875 -1.21875 C 0.226562 -1.1875 0.273438 -1.1875 0.328125 -1.21875 Z M 0.328125 -1.21875 "/></g></g></g></svg>