<svg xmlns="http://www.w3.org/2000/svg" xmlns:xlink="http://www.w3.org/1999/xlink" width="300" zoomAndPan="magnify" viewBox="0 0 224.87999 225" height="300" preserveAspectRatio="xMidYMid meet" version="1.2"><defs><clipPath id="f08f6dc6cf"><path d="M 68.855469 45.289062 L 155.808594 45.289062 L 155.808594 135 L 68.855469 135 Z M 68.855469 45.289062 "/></clipPath></defs><g id="03fe4e9155"><g clip-rule="nonzero" clip-path="url(#f08f6dc6cf)"><path style=" stroke:none;fill-rule:nonzero;fill:#009966;fill-opacity:1;" d="M 149.375 94.160156 L 140.40625 94.160156 L 140.40625 92 C 140.40625 89.496094 138.371094 87.460938 135.871094 87.460938 L 125.386719 87.460938 C 122.886719 87.460938 120.851562 89.496094 120.851562 92 L 120.851562 94.160156 L 118.308594 94.160156 L 118.308594 69.6875 C 118.308594 64.269531 113.898438 59.859375 108.480469 59.859375 L 105.703125 59.859375 L 105.703125 51.546875 C 107.070312 51.332031 108.121094 50.15625 108.121094 48.726562 L 108.121094 48.191406 C 108.125 46.613281 106.839844 45.328125 105.257812 45.328125 L 81.902344 45.328125 C 80.324219 45.328125 79.039062 46.613281 79.039062 48.191406 L 79.039062 48.726562 C 79.039062 50.15625 80.09375 51.332031 81.460938 51.546875 L 81.460938 59.859375 L 78.683594 59.859375 C 73.261719 59.859375 68.855469 64.269531 68.855469 69.6875 L 68.855469 119.308594 C 68.855469 123.402344 71.375 126.917969 74.941406 128.390625 L 74.941406 131.871094 C 74.941406 133.585938 76.339844 134.984375 78.058594 134.984375 C 79.773438 134.984375 81.171875 133.585938 81.171875 131.871094 L 81.171875 129.136719 L 105.472656 129.136719 C 105.820312 132.363281 108.5625 134.886719 111.882812 134.886719 L 149.375 134.886719 C 152.929688 134.886719 155.824219 131.996094 155.824219 128.4375 L 155.824219 100.613281 C 155.824219 97.054688 152.929688 94.160156 149.375 94.160156 Z M 144.738281 95.585938 L 144.738281 133.464844 L 116.519531 133.464844 L 116.519531 95.585938 Z M 135.753906 94.160156 L 125.503906 94.160156 L 125.503906 93.277344 C 125.503906 92.425781 126.195312 91.730469 127.046875 91.730469 L 134.210938 91.730469 C 135.0625 91.730469 135.753906 92.425781 135.753906 93.277344 Z M 122.273438 92 C 122.273438 90.28125 123.671875 88.882812 125.386719 88.882812 L 135.871094 88.882812 C 137.589844 88.882812 138.984375 90.28125 138.984375 92 L 138.984375 94.160156 L 137.179688 94.160156 L 137.179688 93.277344 C 137.179688 91.640625 135.847656 90.308594 134.210938 90.308594 L 127.046875 90.308594 C 125.410156 90.308594 124.082031 91.640625 124.082031 93.277344 L 124.082031 94.160156 L 122.273438 94.160156 Z M 102.398438 59.859375 L 102.398438 51.589844 L 104.28125 51.589844 L 104.28125 59.859375 Z M 100.839844 59.859375 L 99.582031 58.191406 C 98.980469 57.386719 98.085938 56.929688 97.132812 56.929688 L 90.027344 56.929688 C 89.074219 56.929688 88.179688 57.386719 87.578125 58.191406 L 86.320312 59.859375 L 86.183594 59.859375 L 86.183594 51.589844 L 100.976562 51.589844 L 100.976562 59.859375 Z M 99.058594 59.859375 L 88.101562 59.859375 L 88.714844 59.042969 C 89.046875 58.605469 89.527344 58.351562 90.027344 58.351562 L 97.132812 58.351562 C 97.636719 58.351562 98.113281 58.605469 98.445312 59.042969 Z M 80.460938 48.726562 L 80.460938 48.191406 C 80.460938 47.394531 81.109375 46.75 81.902344 46.75 L 105.257812 46.75 C 106.054688 46.75 106.699219 47.394531 106.699219 48.191406 L 106.699219 48.726562 C 106.699219 49.523438 106.054688 50.167969 105.257812 50.167969 L 81.902344 50.167969 C 81.109375 50.167969 80.460938 49.523438 80.460938 48.726562 Z M 82.882812 51.589844 L 84.761719 51.589844 L 84.761719 59.859375 L 82.882812 59.859375 Z M 70.277344 119.308594 L 70.277344 69.6875 C 70.277344 65.050781 74.046875 61.28125 78.683594 61.28125 L 108.480469 61.28125 C 113.113281 61.28125 116.886719 65.050781 116.886719 69.6875 L 116.886719 94.160156 L 112.515625 94.160156 L 112.515625 68.699219 C 112.515625 67.175781 111.277344 65.9375 109.753906 65.9375 C 108.230469 65.9375 106.992188 67.175781 106.992188 68.699219 L 106.992188 96.417969 C 106.023438 97.546875 105.433594 99.011719 105.433594 100.613281 L 105.433594 127.710938 L 78.683594 127.710938 C 74.046875 127.710938 70.277344 123.941406 70.277344 119.308594 Z M 108.414062 95.183594 L 108.414062 68.699219 C 108.414062 67.960938 109.015625 67.359375 109.753906 67.359375 C 110.492188 67.359375 111.089844 67.960938 111.089844 68.699219 L 111.089844 94.214844 C 110.113281 94.335938 109.207031 94.675781 108.414062 95.183594 Z M 79.75 131.871094 C 79.75 132.800781 78.992188 133.5625 78.058594 133.5625 C 77.125 133.5625 76.367188 132.800781 76.367188 131.871094 L 76.367188 128.847656 C 77.109375 129.027344 77.882812 129.132812 78.683594 129.132812 L 79.75 129.132812 Z M 106.863281 128.582031 C 106.878906 128.53125 106.898438 128.480469 106.898438 128.421875 C 106.898438 128.351562 106.875 128.289062 106.855469 128.226562 L 106.855469 100.613281 C 106.855469 99.585938 107.167969 98.632812 107.695312 97.835938 C 107.699219 97.835938 107.699219 97.835938 107.703125 97.835938 C 108.09375 97.835938 108.414062 97.515625 108.414062 97.125 L 108.414062 96.984375 C 109.257812 96.175781 110.382812 95.660156 111.625 95.597656 C 111.683594 95.613281 111.738281 95.632812 111.804688 95.632812 C 111.890625 95.632812 111.96875 95.613281 112.046875 95.585938 L 115.097656 95.585938 L 115.097656 133.464844 L 111.882812 133.464844 C 109.160156 133.464844 106.941406 131.289062 106.863281 128.582031 Z M 154.402344 128.4375 C 154.402344 131.210938 152.148438 133.464844 149.375 133.464844 L 146.160156 133.464844 L 146.160156 95.585938 L 149.375 95.585938 C 152.148438 95.585938 154.402344 97.839844 154.402344 100.613281 Z M 154.402344 128.4375 "/></g><path style=" stroke:none;fill-rule:nonzero;fill:#009966;fill-opacity:1;" d="M 93.351562 122.183594 L 93.808594 122.183594 C 95.207031 122.183594 96.34375 121.046875 96.34375 119.648438 L 96.34375 68.46875 C 96.34375 67.074219 95.207031 65.9375 93.808594 65.9375 L 93.351562 65.9375 C 91.957031 65.9375 90.820312 67.074219 90.820312 68.46875 L 90.820312 119.648438 C 90.820312 121.046875 91.957031 122.183594 93.351562 122.183594 Z M 92.242188 68.46875 C 92.242188 67.859375 92.742188 67.359375 93.355469 67.359375 L 93.808594 67.359375 C 94.421875 67.359375 94.921875 67.859375 94.921875 68.46875 L 94.921875 119.648438 C 94.921875 120.261719 94.421875 120.761719 93.808594 120.761719 L 93.355469 120.761719 C 92.742188 120.761719 92.242188 120.261719 92.242188 119.648438 Z M 92.242188 68.46875 "/><path style=" stroke:none;fill-rule:nonzero;fill:#009966;fill-opacity:1;" d="M 85.050781 122.183594 L 85.507812 122.183594 C 86.902344 122.183594 88.039062 121.046875 88.039062 119.648438 L 88.039062 68.46875 C 88.039062 67.074219 86.902344 65.9375 85.507812 65.9375 L 85.050781 65.9375 C 83.652344 65.9375 82.515625 67.074219 82.515625 68.46875 L 82.515625 119.648438 C 82.515625 121.046875 83.652344 122.183594 85.050781 122.183594 Z M 83.941406 68.46875 C 83.941406 67.859375 84.4375 67.359375 85.050781 67.359375 L 85.507812 67.359375 C 86.117188 67.359375 86.617188 67.859375 86.617188 68.46875 L 86.617188 119.648438 C 86.617188 120.261719 86.117188 120.761719 85.507812 120.761719 L 85.050781 120.761719 C 84.4375 120.761719 83.941406 120.261719 83.941406 119.648438 Z M 83.941406 68.46875 "/><path style=" stroke:none;fill-rule:nonzero;fill:#009966;fill-opacity:1;" d="M 79.738281 119.648438 L 79.738281 68.46875 C 79.738281 67.074219 78.601562 65.9375 77.203125 65.9375 L 76.746094 65.9375 C 75.351562 65.9375 74.214844 67.074219 74.214844 68.46875 L 74.214844 119.648438 C 74.214844 121.046875 75.351562 122.183594 76.746094 122.183594 L 77.203125 122.183594 C 78.601562 122.183594 79.738281 121.046875 79.738281 119.648438 Z M 78.3125 119.648438 C 78.3125 120.261719 77.816406 120.761719 77.203125 120.761719 L 76.746094 120.761719 C 76.136719 120.761719 75.636719 120.261719 75.636719 119.648438 L 75.636719 68.46875 C 75.636719 67.859375 76.136719 67.359375 76.746094 67.359375 L 77.203125 67.359375 C 77.816406 67.359375 78.3125 67.859375 78.3125 68.46875 Z M 78.3125 119.648438 "/><path style=" stroke:none;fill-rule:nonzero;fill:#009966;fill-opacity:1;" d="M 101.222656 122.183594 L 101.679688 122.183594 C 103.074219 122.183594 104.210938 121.046875 104.210938 119.648438 L 104.210938 68.46875 C 104.210938 67.074219 103.078125 65.9375 101.679688 65.9375 L 101.222656 65.9375 C 99.828125 65.9375 98.691406 67.074219 98.691406 68.46875 L 98.691406 119.648438 C 98.691406 121.046875 99.824219 122.183594 101.222656 122.183594 Z M 100.113281 68.46875 C 100.113281 67.859375 100.609375 67.359375 101.222656 67.359375 L 101.679688 67.359375 C 102.289062 67.359375 102.789062 67.859375 102.789062 68.46875 L 102.789062 119.648438 C 102.789062 120.261719 102.292969 120.761719 101.679688 120.761719 L 101.222656 120.761719 C 100.609375 120.761719 100.113281 120.261719 100.113281 119.648438 Z M 100.113281 68.46875 "/><g style="fill:#009966;fill-opacity:1;"><g transform="translate(45.559561, 153.22944)"><path style="stroke:none" d="M 5.46875 4.140625 C 4.5 3.460938 3.753906 2.660156 3.234375 1.734375 C 2.722656 0.804688 2.5 -0.175781 2.5625 -1.21875 C 2.625 -2.257812 3.015625 -3.296875 3.734375 -4.328125 L 7.453125 -9.59375 L 11.609375 -6.671875 L 8.0625 -1.65625 C 7.789062 -1.269531 7.65625 -0.910156 7.65625 -0.578125 C 7.664062 -0.253906 7.832031 0.0195312 8.15625 0.25 C 8.46875 0.46875 8.769531 0.523438 9.0625 0.421875 C 9.363281 0.328125 9.644531 0.09375 9.90625 -0.28125 L 21.3125 -16.46875 L 25.5625 -13.484375 L 14.4375 2.296875 C 13.675781 3.390625 12.785156 4.191406 11.765625 4.703125 C 10.742188 5.222656 9.6875 5.429688 8.59375 5.328125 C 7.5 5.234375 6.457031 4.835938 5.46875 4.140625 Z M 5.46875 4.140625 "/></g></g><g style="fill:#009966;fill-opacity:1;"><g transform="translate(58.426927, 162.167235)"><path style="stroke:none" d="M 4.390625 2.453125 C 2.867188 1.691406 2.078125 0.671875 2.015625 -0.609375 C 1.960938 -1.898438 2.410156 -3.484375 3.359375 -5.359375 C 4.128906 -6.898438 4.921875 -7.976562 5.734375 -8.59375 C 6.546875 -9.207031 7.40625 -9.523438 8.3125 -9.546875 C 9.226562 -9.578125 10.53125 -9.460938 12.21875 -9.203125 L 13.703125 -8.984375 L 13.734375 -9.03125 L 14.71875 -11 C 14.976562 -11.519531 15.078125 -11.96875 15.015625 -12.34375 C 14.953125 -12.71875 14.78125 -12.972656 14.5 -13.109375 C 14.25 -13.234375 13.96875 -13.226562 13.65625 -13.09375 C 13.351562 -12.957031 13.101562 -12.691406 12.90625 -12.296875 L 12.328125 -11.125 L 7.765625 -13.421875 L 8.078125 -14.0625 C 9.046875 -15.988281 10.1875 -17.132812 11.5 -17.5 C 12.8125 -17.875 14.488281 -17.546875 16.53125 -16.515625 C 18.144531 -15.710938 19.25 -14.628906 19.84375 -13.265625 C 20.4375 -11.898438 20.347656 -10.441406 19.578125 -8.890625 L 12.078125 6.0625 L 7.421875 3.71875 L 8.59375 1.390625 C 7.945312 2.078125 7.257812 2.515625 6.53125 2.703125 C 5.800781 2.890625 5.085938 2.804688 4.390625 2.453125 Z M 8.078125 -0.25 C 8.429688 -0.0703125 8.753906 -0.0859375 9.046875 -0.296875 C 9.347656 -0.515625 9.609375 -0.835938 9.828125 -1.265625 L 12.5625 -6.734375 C 11.726562 -6.816406 11.046875 -6.734375 10.515625 -6.484375 C 9.984375 -6.242188 9.53125 -5.757812 9.15625 -5.03125 L 7.90625 -2.515625 C 7.320312 -1.359375 7.378906 -0.601562 8.078125 -0.25 Z M 8.078125 -0.25 "/></g></g><g style="fill:#009966;fill-opacity:1;"><g transform="translate(72.983545, 169.324183)"><path style="stroke:none" d="M 1 0.328125 L 8.9375 -24.3125 L 13.875 -22.734375 L 10.34375 -11.796875 L 15.046875 -18.1875 L 20.203125 -16.53125 L 14.140625 -8.484375 L 14.359375 4.625 L 9.046875 2.90625 L 9.109375 -7.9375 L 5.9375 1.90625 Z M 1 0.328125 "/></g></g><g style="fill:#009966;fill-opacity:1;"><g transform="translate(88.659302, 174.204188)"><path style="stroke:none" d="M 7.125 1.40625 C 4.820312 1.03125 3.242188 0.1875 2.390625 -1.125 C 1.546875 -2.4375 1.332031 -4.367188 1.75 -6.921875 L 2.15625 -9.40625 L 7.15625 -8.578125 L 6.640625 -5.40625 C 6.429688 -4.144531 6.734375 -3.453125 7.546875 -3.328125 C 8.003906 -3.242188 8.34375 -3.320312 8.5625 -3.5625 C 8.789062 -3.800781 8.957031 -4.238281 9.0625 -4.875 C 9.195312 -5.695312 9.207031 -6.394531 9.09375 -6.96875 C 8.988281 -7.539062 8.8125 -8.035156 8.5625 -8.453125 C 8.3125 -8.867188 7.851562 -9.523438 7.1875 -10.421875 L 5.359375 -12.984375 C 3.929688 -14.910156 3.378906 -16.878906 3.703125 -18.890625 C 4.054688 -21.054688 4.828125 -22.625 6.015625 -23.59375 C 7.203125 -24.5625 8.753906 -24.890625 10.671875 -24.578125 C 12.960938 -24.203125 14.507812 -23.328125 15.3125 -21.953125 C 16.113281 -20.578125 16.304688 -18.601562 15.890625 -16.03125 L 10.71875 -16.875 L 10.96875 -18.609375 C 11.019531 -18.953125 10.96875 -19.234375 10.8125 -19.453125 C 10.65625 -19.679688 10.410156 -19.820312 10.078125 -19.875 C 9.679688 -19.945312 9.363281 -19.890625 9.125 -19.703125 C 8.894531 -19.523438 8.753906 -19.242188 8.703125 -18.859375 C 8.566406 -18.035156 8.898438 -17.097656 9.703125 -16.046875 L 12.203125 -12.734375 C 12.773438 -11.953125 13.238281 -11.222656 13.59375 -10.546875 C 13.957031 -9.867188 14.207031 -9.097656 14.34375 -8.234375 C 14.488281 -7.367188 14.46875 -6.375 14.28125 -5.25 C 13.875 -2.75 13.101562 -0.929688 11.96875 0.203125 C 10.84375 1.347656 9.226562 1.75 7.125 1.40625 Z M 7.125 1.40625 "/></g></g><g style="fill:#009966;fill-opacity:1;"><g transform="translate(103.980178, 176.604672)"><path style="stroke:none" d="M 5.03125 0.296875 C 3.332031 0.273438 2.175781 -0.296875 1.5625 -1.421875 C 0.945312 -2.554688 0.648438 -4.175781 0.671875 -6.28125 C 0.703125 -8 0.945312 -9.3125 1.40625 -10.21875 C 1.875 -11.132812 2.507812 -11.800781 3.3125 -12.21875 C 4.113281 -12.644531 5.335938 -13.109375 6.984375 -13.609375 L 8.421875 -14.0625 L 8.421875 -14.125 L 8.453125 -16.3125 C 8.460938 -16.894531 8.351562 -17.335938 8.125 -17.640625 C 7.90625 -17.953125 7.640625 -18.113281 7.328125 -18.125 C 7.046875 -18.125 6.796875 -17.992188 6.578125 -17.734375 C 6.367188 -17.484375 6.265625 -17.140625 6.265625 -16.703125 L 6.234375 -15.390625 L 1.125 -15.453125 L 1.140625 -16.171875 C 1.171875 -18.328125 1.695312 -19.859375 2.71875 -20.765625 C 3.738281 -21.671875 5.390625 -22.109375 7.671875 -22.078125 C 9.484375 -22.046875 10.953125 -21.546875 12.078125 -20.578125 C 13.210938 -19.617188 13.765625 -18.269531 13.734375 -16.53125 L 13.515625 0.1875 L 8.296875 0.109375 L 8.328125 -2.5 C 8.054688 -1.601562 7.632812 -0.910156 7.0625 -0.421875 C 6.488281 0.0664062 5.8125 0.304688 5.03125 0.296875 Z M 7.15625 -3.75 C 7.550781 -3.738281 7.835938 -3.894531 8.015625 -4.21875 C 8.191406 -4.550781 8.285156 -4.957031 8.296875 -5.4375 L 8.375 -11.546875 C 7.59375 -11.253906 7.007812 -10.878906 6.625 -10.421875 C 6.25 -9.972656 6.054688 -9.335938 6.046875 -8.515625 L 6.015625 -5.703125 C 5.992188 -4.410156 6.375 -3.757812 7.15625 -3.75 Z M 7.15625 -3.75 "/></g></g><g style="fill:#009966;fill-opacity:1;"><g transform="translate(120.220245, 176.709263)"><path style="stroke:none" d="M 9.46875 -1.109375 C 8.039062 -0.898438 6.898438 -1.609375 6.046875 -3.234375 L 6.375 -0.90625 L 1.03125 -0.140625 L -2.609375 -25.78125 L 2.734375 -26.546875 L 3.4375 -21.59375 C 4.144531 -22.550781 5.050781 -23.109375 6.15625 -23.265625 C 7.832031 -23.503906 9.109375 -23.175781 9.984375 -22.28125 C 10.867188 -21.394531 11.441406 -20.007812 11.703125 -18.125 L 13.203125 -7.640625 C 13.453125 -5.867188 13.273438 -4.390625 12.671875 -3.203125 C 12.078125 -2.023438 11.007812 -1.328125 9.46875 -1.109375 Z M 7.140625 -4.90625 C 7.492188 -4.957031 7.726562 -5.101562 7.84375 -5.34375 C 7.957031 -5.59375 8.003906 -5.890625 7.984375 -6.234375 C 7.972656 -6.585938 7.914062 -7.132812 7.8125 -7.875 L 6.515625 -16.921875 C 6.410156 -17.691406 6.265625 -18.25 6.078125 -18.59375 C 5.890625 -18.945312 5.566406 -19.09375 5.109375 -19.03125 C 4.617188 -18.957031 4.304688 -18.722656 4.171875 -18.328125 C 4.046875 -17.929688 4.035156 -17.367188 4.140625 -16.640625 L 5.4375 -7.53125 C 5.570312 -6.582031 5.75 -5.882812 5.96875 -5.4375 C 6.195312 -5 6.585938 -4.820312 7.140625 -4.90625 Z M 7.140625 -4.90625 "/></g></g><g style="fill:#009966;fill-opacity:1;"><g transform="translate(136.807401, 174.192321)"><path style="stroke:none" d="M 4.875 -1.25 C 3.25 -0.75 1.96875 -0.941406 1.03125 -1.828125 C 0.101562 -2.722656 -0.660156 -4.175781 -1.265625 -6.1875 C -1.773438 -7.832031 -1.941406 -9.160156 -1.765625 -10.171875 C -1.597656 -11.179688 -1.195312 -12.007812 -0.5625 -12.65625 C 0.0703125 -13.300781 1.09375 -14.113281 2.5 -15.09375 L 3.75 -15.96875 L 3.71875 -16.015625 L 3.09375 -18.109375 C 2.914062 -18.671875 2.671875 -19.0625 2.359375 -19.28125 C 2.054688 -19.507812 1.753906 -19.578125 1.453125 -19.484375 C 1.179688 -19.398438 0.984375 -19.207031 0.859375 -18.90625 C 0.742188 -18.601562 0.75 -18.238281 0.875 -17.8125 L 1.25 -16.5625 L -3.640625 -15.0625 L -3.84375 -15.75 C -4.46875 -17.8125 -4.429688 -19.425781 -3.734375 -20.59375 C -3.035156 -21.769531 -1.597656 -22.691406 0.578125 -23.359375 C 2.316406 -23.878906 3.867188 -23.851562 5.234375 -23.28125 C 6.597656 -22.707031 7.535156 -21.59375 8.046875 -19.9375 L 12.921875 -3.9375 L 7.9375 -2.421875 L 7.171875 -4.921875 C 7.179688 -3.984375 6.988281 -3.191406 6.59375 -2.546875 C 6.195312 -1.910156 5.625 -1.476562 4.875 -1.25 Z M 5.671875 -5.75 C 6.054688 -5.863281 6.28125 -6.101562 6.34375 -6.46875 C 6.414062 -6.832031 6.378906 -7.242188 6.234375 -7.703125 L 4.46875 -13.546875 C 3.800781 -13.023438 3.359375 -12.492188 3.140625 -11.953125 C 2.921875 -11.410156 2.929688 -10.742188 3.171875 -9.953125 L 3.984375 -7.265625 C 4.359375 -6.023438 4.921875 -5.519531 5.671875 -5.75 Z M 5.671875 -5.75 "/></g></g><g style="fill:#009966;fill-opacity:1;"><g transform="translate(152.303822, 169.346249)"><path style="stroke:none" d="M -8.609375 -20.203125 L -3.875 -22.484375 L -2.671875 -19.984375 C -2.859375 -20.890625 -2.832031 -21.707031 -2.59375 -22.4375 C -2.351562 -23.175781 -1.820312 -23.742188 -1 -24.140625 C 0.332031 -24.785156 1.507812 -24.851562 2.53125 -24.34375 C 3.5625 -23.832031 4.441406 -22.820312 5.171875 -21.3125 L 12.546875 -6.0625 L 7.90625 -3.828125 L 0.78125 -18.578125 C 0.5625 -19.015625 0.296875 -19.34375 -0.015625 -19.5625 C -0.328125 -19.78125 -0.671875 -19.800781 -1.046875 -19.625 C -1.523438 -19.382812 -1.734375 -19.007812 -1.671875 -18.5 C -1.609375 -17.988281 -1.398438 -17.367188 -1.046875 -16.640625 L 5.671875 -2.734375 L 0.9375 -0.453125 Z M -8.609375 -20.203125 "/></g></g><g style="fill:#009966;fill-opacity:1;"><g transform="translate(167.328609, 161.933921)"><path style="stroke:none" d="M 7.53125 -1.34375 C 6.25 -0.445312 5.175781 0.148438 4.3125 0.453125 C 3.445312 0.753906 2.453125 0.863281 1.328125 0.78125 L 1.09375 -2.734375 C 2.570312 -2.835938 3.828125 -3.25 4.859375 -3.96875 C 5.523438 -4.4375 5.882812 -5.003906 5.9375 -5.671875 C 6 -6.335938 5.769531 -7.039062 5.25 -7.78125 L 4.578125 -8.765625 C 5.078125 -7.296875 4.585938 -6.046875 3.109375 -5.015625 C 1.878906 -4.160156 0.6875 -3.945312 -0.46875 -4.375 C -1.632812 -4.800781 -2.703125 -5.710938 -3.671875 -7.109375 L -8.390625 -13.875 C -9.492188 -15.46875 -10.066406 -16.875 -10.109375 -18.09375 C -10.160156 -19.3125 -9.523438 -20.378906 -8.203125 -21.296875 C -7.429688 -21.835938 -6.6875 -22.070312 -5.96875 -22 C -5.25 -21.925781 -4.570312 -21.59375 -3.9375 -21 L -5.34375 -23 L -0.953125 -26.0625 L 9.453125 -11.109375 C 10.859375 -9.097656 11.398438 -7.320312 11.078125 -5.78125 C 10.765625 -4.25 9.582031 -2.769531 7.53125 -1.34375 Z M 2.578125 -9.46875 C 3.253906 -9.9375 3.171875 -10.773438 2.328125 -11.984375 L -2.140625 -18.40625 C -2.390625 -18.769531 -2.726562 -19.046875 -3.15625 -19.234375 C -3.582031 -19.421875 -3.945312 -19.410156 -4.25 -19.203125 C -4.625 -18.929688 -4.78125 -18.617188 -4.71875 -18.265625 C -4.664062 -17.910156 -4.472656 -17.492188 -4.140625 -17.015625 L 0.328125 -10.59375 C 0.703125 -10.050781 1.070312 -9.65625 1.4375 -9.40625 C 1.800781 -9.164062 2.179688 -9.1875 2.578125 -9.46875 Z M 2.578125 -9.46875 "/></g></g></g></svg>